<?xml version="1.0" encoding="utf-8"?>
<!-- Generator: Adobe Illustrator 21.1.0, SVG Export Plug-In . SVG Version: 6.00 Build 0)  -->
<svg version="1.1" id="Layer_1" xmlns="http://www.w3.org/2000/svg" xmlns:xlink="http://www.w3.org/1999/xlink" x="0px" y="0px"
	 viewBox="0 0 370 540" style="enable-background:new 0 0 370 540;" xml:space="preserve">
<path fill="#F0F0F0" d="M64.8,271.2c38.9,47,50.9,105.4,102.1,145.2c27.9,21.7,60.8,35.8,88.6,57.6c17.8,14,33.6,31.2,54,40.7
	c11.7,5.4,28.1,15.3,43.8,25.4H370V211.7c-28-33.2-72.1-47.8-107-68.3c-16.9-9.9-38.8-22-51.2-38.9c-16.9-23-22.1-29.6-44.4-49.1
	C155.3,44.9,141,38,128.9,27.4c-7.7-6.8-14.6,2.3-23.5-2.3C95.3,19.8,77.2,5.9,69.5,0H0v220.2C24.6,234.6,48.3,251.3,64.8,271.2z"/>
</svg>